<?xml version="1.0" encoding="UTF-8" standalone="no"?>
<!DOCTYPE svg PUBLIC "-//W3C//DTD SVG 1.1//EN"
 "http://www.w3.org/Graphics/SVG/1.1/DTD/svg11.dtd">
<!-- Generated by graphviz version 2.44.1 (20200629.0846)
 -->
<!-- Title: G Pages: 1 -->
<svg width="442pt" height="524pt"
 viewBox="0.00 0.00 441.59 523.64" xmlns="http://www.w3.org/2000/svg" xmlns:xlink="http://www.w3.org/1999/xlink">
<g id="graph0" class="graph" transform="scale(1 1) rotate(0) translate(4 519.64)">
<title>G</title>
<polygon fill="white" stroke="transparent" points="-4,4 -4,-519.64 437.59,-519.64 437.59,4 -4,4"/>
<!-- x -->
<g id="node1" class="node">
<title>x</title>
<text text-anchor="middle" x="216.8" y="-494.3" font-family="Times,serif" font-size="14.00">X</text>
</g>
<!-- x_ -->
<g id="node2" class="node">
<title>x_</title>
<ellipse fill="black" stroke="black" cx="216.8" cy="-456" rx="1.8" ry="1.8"/>
</g>
<!-- x&#45;&gt;x_ -->
<g id="edge1" class="edge">
<title>x&#45;&gt;x_</title>
<path fill="none" stroke="black" d="M216.8,-479.94C216.8,-471.41 216.8,-462.21 216.8,-458.14"/>
</g>
<!-- p -->
<g id="node4" class="node">
<title>p</title>
<polygon fill="none" stroke="black" points="265.8,-432 167.8,-432 167.8,-396 265.8,-396 265.8,-432"/>
<text text-anchor="middle" x="216.8" y="-410.3" font-family="Times,serif" font-size="14.00">Global pooling</text>
</g>
<!-- x_&#45;&gt;p -->
<g id="edge3" class="edge">
<title>x_&#45;&gt;p</title>
<path fill="none" stroke="black" d="M216.8,-454.2C216.8,-454.2 216.8,-442.36 216.8,-442.36"/>
<polygon fill="black" stroke="black" points="220.3,-442.36 216.8,-432.36 213.3,-442.36 220.3,-442.36"/>
</g>
<!-- scale -->
<g id="node5" class="node">
<title>scale</title>
<polygon fill="none" stroke="black" points="243.8,-142 189.8,-142 189.8,-104 243.8,-104 243.8,-142"/>
<text text-anchor="middle" x="216.8" y="-126.8" font-family="Times,serif" font-size="14.00">Scale</text>
<text text-anchor="middle" x="216.8" y="-111.8" font-family="Times,serif" font-size="14.00">⊙</text>
</g>
<!-- x_&#45;&gt;scale -->
<g id="edge2" class="edge">
<title>x_&#45;&gt;scale</title>
<path fill="none" stroke="black" d="M214.86,-456C203.88,-456 149.8,-456 149.8,-456 149.8,-456 149.8,-123 149.8,-123 149.8,-123 179.54,-123 179.54,-123"/>
<polygon fill="black" stroke="black" points="179.54,-126.5 189.54,-123 179.54,-119.5 179.54,-126.5"/>
<text text-anchor="middle" x="124.3" y="-310.96" font-family="Times,serif" font-size="14.00">residual &#160;</text>
</g>
<!-- add -->
<g id="node9" class="node">
<title>add</title>
<ellipse fill="none" stroke="black" cx="216.8" cy="-70" rx="12.04" ry="12.04"/>
<text text-anchor="middle" x="216.8" y="-66.3" font-family="Times,serif" font-size="14.00">+</text>
</g>
<!-- x_&#45;&gt;add -->
<g id="edge9" class="edge">
<title>x_&#45;&gt;add</title>
<path fill="none" stroke="black" d="M218.73,-456C229.71,-456 283.8,-456 283.8,-456 283.8,-456 283.8,-70 283.8,-70 283.8,-70 239.08,-70 239.08,-70"/>
<polygon fill="black" stroke="black" points="239.08,-66.5 229.08,-70 239.08,-73.5 239.08,-66.5"/>
<text text-anchor="middle" x="272.3" y="-276.98" font-family="Times,serif" font-size="14.00">skip</text>
</g>
<!-- sigmoid -->
<g id="node3" class="node">
<title>sigmoid</title>
<polygon fill="none" stroke="black" points="243.8,-200 189.8,-200 189.8,-164 243.8,-164 243.8,-200"/>
<text text-anchor="middle" x="216.8" y="-178.3" font-family="Times,serif" font-size="14.00">σ</text>
</g>
<!-- sigmoid&#45;&gt;scale -->
<g id="edge8" class="edge">
<title>sigmoid&#45;&gt;scale</title>
<path fill="none" stroke="black" d="M216.8,-163.98C216.8,-163.98 216.8,-152.14 216.8,-152.14"/>
<polygon fill="black" stroke="black" points="220.3,-152.14 216.8,-142.14 213.3,-152.14 220.3,-152.14"/>
</g>
<!-- fc1 -->
<g id="node6" class="node">
<title>fc1</title>
<polygon fill="none" stroke="black" points="243.8,-374 189.8,-374 189.8,-338 243.8,-338 243.8,-374"/>
<text text-anchor="middle" x="216.8" y="-352.3" font-family="Times,serif" font-size="14.00">FC 1</text>
</g>
<!-- p&#45;&gt;fc1 -->
<g id="edge4" class="edge">
<title>p&#45;&gt;fc1</title>
<path fill="none" stroke="black" d="M216.8,-395.97C216.8,-395.97 216.8,-384.22 216.8,-384.22"/>
<polygon fill="black" stroke="black" points="220.3,-384.22 216.8,-374.22 213.3,-384.22 220.3,-384.22"/>
</g>
<!-- scale&#45;&gt;add -->
<g id="edge10" class="edge">
<title>scale&#45;&gt;add</title>
<path fill="none" stroke="black" d="M216.8,-103.87C216.8,-103.87 216.8,-92.18 216.8,-92.18"/>
<polygon fill="black" stroke="black" points="220.3,-92.18 216.8,-82.18 213.3,-92.18 220.3,-92.18"/>
</g>
<!-- relu -->
<g id="node8" class="node">
<title>relu</title>
<polygon fill="none" stroke="black" points="243.8,-316 189.8,-316 189.8,-280 243.8,-280 243.8,-316"/>
<text text-anchor="middle" x="216.8" y="-294.3" font-family="Times,serif" font-size="14.00">ReLu</text>
</g>
<!-- fc1&#45;&gt;relu -->
<g id="edge5" class="edge">
<title>fc1&#45;&gt;relu</title>
<path fill="none" stroke="black" d="M216.8,-337.97C216.8,-337.97 216.8,-326.22 216.8,-326.22"/>
<polygon fill="black" stroke="black" points="220.3,-326.22 216.8,-316.22 213.3,-326.22 220.3,-326.22"/>
</g>
<!-- fc2 -->
<g id="node7" class="node">
<title>fc2</title>
<polygon fill="none" stroke="black" points="243.8,-258 189.8,-258 189.8,-222 243.8,-222 243.8,-258"/>
<text text-anchor="middle" x="216.8" y="-236.3" font-family="Times,serif" font-size="14.00">FC 2</text>
</g>
<!-- fc2&#45;&gt;sigmoid -->
<g id="edge7" class="edge">
<title>fc2&#45;&gt;sigmoid</title>
<path fill="none" stroke="black" d="M216.8,-221.97C216.8,-221.97 216.8,-210.22 216.8,-210.22"/>
<polygon fill="black" stroke="black" points="220.3,-210.22 216.8,-200.22 213.3,-210.22 220.3,-210.22"/>
</g>
<!-- relu&#45;&gt;fc2 -->
<g id="edge6" class="edge">
<title>relu&#45;&gt;fc2</title>
<path fill="none" stroke="black" d="M216.8,-279.97C216.8,-279.97 216.8,-268.22 216.8,-268.22"/>
<polygon fill="black" stroke="black" points="220.3,-268.22 216.8,-258.22 213.3,-268.22 220.3,-268.22"/>
</g>
<!-- y -->
<g id="node10" class="node">
<title>y</title>
<text text-anchor="middle" x="216.8" y="-14.3" font-family="Times,serif" font-size="14.00">X̃</text>
</g>
<!-- add&#45;&gt;y -->
<g id="edge11" class="edge">
<title>add&#45;&gt;y</title>
<path fill="none" stroke="black" d="M216.8,-57.94C216.8,-57.94 216.8,-46.11 216.8,-46.11"/>
<polygon fill="black" stroke="black" points="220.3,-46.11 216.8,-36.11 213.3,-46.11 220.3,-46.11"/>
</g>
</g>
</svg>
