<?xml version="1.0" encoding="UTF-8" standalone="no"?>
<!DOCTYPE svg PUBLIC "-//W3C//DTD SVG 1.1//EN"
 "http://www.w3.org/Graphics/SVG/1.1/DTD/svg11.dtd">
<!-- Generated by graphviz version 2.44.1 (20200629.0846)
 -->
<!-- Title: G Pages: 1 -->
<svg width="661pt" height="273pt"
 viewBox="0.00 0.00 660.72 273.00" xmlns="http://www.w3.org/2000/svg" xmlns:xlink="http://www.w3.org/1999/xlink">
<g id="graph0" class="graph" transform="scale(1 1) rotate(0) translate(4 269)">
<title>G</title>
<polygon fill="white" stroke="transparent" points="-4,4 -4,-269 656.72,-269 656.72,4 -4,4"/>
<g id="clust1" class="cluster">
<title>cluster_agent</title>
<path fill="lightgrey" stroke="black" d="M20,-8C20,-8 632.72,-8 632.72,-8 638.72,-8 644.72,-14 644.72,-20 644.72,-20 644.72,-151 644.72,-151 644.72,-157 638.72,-163 632.72,-163 632.72,-163 20,-163 20,-163 14,-163 8,-157 8,-151 8,-151 8,-20 8,-20 8,-14 14,-8 20,-8"/>
<text text-anchor="middle" x="326.36" y="-147.8" font-family="Times,serif" font-size="14.00">Agent</text>
</g>
<!-- env -->
<g id="node1" class="node">
<title>env</title>
<path fill="none" stroke="black" d="M314.72,-265C314.72,-265 194.72,-265 194.72,-265 188.72,-265 182.72,-259 182.72,-253 182.72,-253 182.72,-205 182.72,-205 182.72,-199 188.72,-193 194.72,-193 194.72,-193 314.72,-193 314.72,-193 320.72,-193 326.72,-199 326.72,-205 326.72,-205 326.72,-253 326.72,-253 326.72,-259 320.72,-265 314.72,-265"/>
<text text-anchor="middle" x="254.72" y="-225.3" font-family="Times,serif" font-size="14.00">Environment</text>
</g>
<!-- actor -->
<g id="node2" class="node">
<title>actor</title>
<polygon fill="white" stroke="black" points="614.72,-110 470.72,-110 470.72,-38 614.72,-38 614.72,-110"/>
<text text-anchor="middle" x="542.72" y="-70.3" font-family="Times,serif" font-size="14.00">Actor</text>
</g>
<!-- env&#45;&gt;actor -->
<g id="edge3" class="edge">
<title>env&#45;&gt;actor</title>
<path fill="none" stroke="black" d="M326.86,-217C405.02,-217 518.72,-217 518.72,-217 518.72,-217 518.72,-120.08 518.72,-120.08"/>
<polygon fill="black" stroke="black" points="522.22,-120.08 518.72,-110.08 515.22,-120.08 522.22,-120.08"/>
</g>
<!-- critic -->
<g id="node3" class="node">
<title>critic</title>
<polygon fill="white" stroke="black" points="326.72,-110 182.72,-110 182.72,-38 326.72,-38 326.72,-110"/>
<text text-anchor="middle" x="254.72" y="-70.3" font-family="Times,serif" font-size="14.00">Critic</text>
</g>
<!-- env&#45;&gt;critic -->
<g id="edge4" class="edge">
<title>env&#45;&gt;critic</title>
<path fill="none" stroke="black" d="M254.72,-192.66C254.72,-192.66 254.72,-120.11 254.72,-120.11"/>
<polygon fill="black" stroke="black" points="258.22,-120.11 254.72,-110.11 251.22,-120.11 258.22,-120.11"/>
</g>
<!-- actor&#45;&gt;env -->
<g id="edge5" class="edge">
<title>actor&#45;&gt;env</title>
<path fill="none" stroke="black" d="M566.72,-110.24C566.72,-159.35 566.72,-241 566.72,-241 566.72,-241 337.08,-241 337.08,-241"/>
<polygon fill="black" stroke="black" points="337.08,-237.5 327.08,-241 337.08,-244.5 337.08,-237.5"/>
<text text-anchor="middle" x="483.78" y="-229.8" font-family="Times,serif" font-size="14.00">U(t) : action</text>
</g>
<!-- critic&#45;&gt;actor -->
<g id="edge1" class="edge">
<title>critic&#45;&gt;actor</title>
<path fill="none" stroke="black" d="M327.02,-74C327.02,-74 460.64,-74 460.64,-74"/>
<polygon fill="black" stroke="black" points="460.64,-77.5 470.64,-74 460.64,-70.5 460.64,-77.5"/>
<text text-anchor="middle" x="431.83" y="-62.8" font-family="Times,serif" font-size="14.00">r̂(t) : TD error</text>
</g>
<!-- reward_hidden -->
<!-- reward_hidden&#45;&gt;critic -->
<g id="edge2" class="edge">
<title>reward_hidden&#45;&gt;critic</title>
<path fill="none" stroke="black" d="M38.98,-74C38.98,-74 172.61,-74 172.61,-74"/>
<polygon fill="black" stroke="black" points="172.61,-77.5 182.61,-74 172.61,-70.5 172.61,-77.5"/>
<text text-anchor="middle" x="72.3" y="-62.8" font-family="Times,serif" font-size="14.00">r(t) : reward</text>
</g>
</g>
</svg>
