<?xml version="1.0" encoding="UTF-8" standalone="no"?>
<!DOCTYPE svg PUBLIC "-//W3C//DTD SVG 1.1//EN"
 "http://www.w3.org/Graphics/SVG/1.1/DTD/svg11.dtd">
<!-- Generated by graphviz version 2.44.1 (20200629.0846)
 -->
<!-- Title: G Pages: 1 -->
<svg width="132pt" height="280pt"
 viewBox="0.00 0.00 132.00 280.40" xmlns="http://www.w3.org/2000/svg" xmlns:xlink="http://www.w3.org/1999/xlink">
<g id="graph0" class="graph" transform="scale(1 1) rotate(0) translate(4 276.4)">
<title>G</title>
<polygon fill="white" stroke="transparent" points="-4,4 -4,-276.4 128,-276.4 128,4 -4,4"/>
<g id="clust1" class="cluster">
<title>cluster_update_type</title>
<polygon fill="lightgrey" stroke="black" points="22,-8 22,-136 102,-136 102,-8 22,-8"/>
</g>
<!-- delete_db -->
<g id="node1" class="node">
<title>delete_db</title>
<polygon fill="white" stroke="black" points="93.5,-128 30.5,-128 30.5,-90 93.5,-90 93.5,-128"/>
<text text-anchor="middle" x="62" y="-112.8" font-family="Times,serif" font-size="14.00">Delete</text>
<text text-anchor="middle" x="62" y="-97.8" font-family="Times,serif" font-size="14.00">database</text>
</g>
<!-- init_db -->
<g id="node2" class="node">
<title>init_db</title>
<polygon fill="white" stroke="black" points="93.5,-54 30.5,-54 30.5,-16 93.5,-16 93.5,-54"/>
<text text-anchor="middle" x="62" y="-38.8" font-family="Times,serif" font-size="14.00">Init.</text>
<text text-anchor="middle" x="62" y="-23.8" font-family="Times,serif" font-size="14.00">database</text>
</g>
<!-- delete_db&#45;&gt;init_db -->
<g id="edge1" class="edge">
<title>delete_db&#45;&gt;init_db</title>
<path fill="none" stroke="black" d="M62,-89.83C62,-82.13 62,-72.97 62,-64.42"/>
<polygon fill="black" stroke="black" points="65.5,-64.41 62,-54.41 58.5,-64.41 65.5,-64.41"/>
</g>
<!-- start -->
<g id="node3" class="node">
<title>start</title>
<ellipse fill="black" stroke="black" cx="62" cy="-171.2" rx="7.2" ry="7.2"/>
</g>
<!-- start&#45;&gt;delete_db -->
<g id="edge3" class="edge">
<title>start&#45;&gt;delete_db</title>
<path fill="none" stroke="black" d="M62,-163.76C62,-157.57 62,-147.76 62,-138.22"/>
<polygon fill="black" stroke="black" points="65.5,-138.14 62,-128.14 58.5,-138.14 65.5,-138.14"/>
</g>
<!-- start_note -->
<g id="node4" class="node">
<title>start_note</title>
<polygon fill="none" stroke="black" points="118,-272.4 0,-272.4 0,-214.4 124,-214.4 124,-266.4 118,-272.4"/>
<polyline fill="none" stroke="black" points="118,-272.4 118,-266.4 "/>
<polyline fill="none" stroke="black" points="124,-266.4 118,-266.4 "/>
<text text-anchor="middle" x="62" y="-247.2" font-family="Times,serif" font-size="14.00">Complete rebuild</text>
<text text-anchor="middle" x="62" y="-232.2" font-family="Times,serif" font-size="14.00">requested.</text>
</g>
<!-- start_note&#45;&gt;start -->
<g id="edge2" class="edge">
<title>start_note&#45;&gt;start</title>
<path fill="none" stroke="black" stroke-dasharray="5,2" d="M62,-214.25C62,-201.13 62,-186.66 62,-178.57"/>
</g>
</g>
</svg>
