<?xml version="1.0" encoding="UTF-8" standalone="no"?>
<!DOCTYPE svg PUBLIC "-//W3C//DTD SVG 1.1//EN"
 "http://www.w3.org/Graphics/SVG/1.1/DTD/svg11.dtd">
<!-- Generated by graphviz version 2.44.1 (20200629.0846)
 -->
<!-- Title: G Pages: 1 -->
<svg width="697pt" height="1102pt"
 viewBox="0.00 0.00 696.50 1102.40" xmlns="http://www.w3.org/2000/svg" xmlns:xlink="http://www.w3.org/1999/xlink">
<g id="graph0" class="graph" transform="scale(1 1) rotate(0) translate(4 1098.4)">
<title>G</title>
<polygon fill="white" stroke="transparent" points="-4,4 -4,-1098.4 692.5,-1098.4 692.5,4 -4,4"/>
<g id="clust1" class="cluster">
<title>cluster_update_type</title>
<polygon fill="lightgrey" stroke="black" points="93.5,-65 93.5,-956 235.5,-956 235.5,-65 93.5,-65"/>
</g>
<!-- db_exists -->
<g id="node1" class="node">
<title>db_exists</title>
<polygon fill="white" stroke="black" points="164.5,-948 101.5,-910 164.5,-872 227.5,-910 164.5,-948"/>
<text text-anchor="middle" x="164.5" y="-913.8" font-family="Times,serif" font-size="14.00">database</text>
<text text-anchor="middle" x="164.5" y="-898.8" font-family="Times,serif" font-size="14.00">exists</text>
</g>
<!-- json_exists -->
<g id="node2" class="node">
<title>json_exists</title>
<polygon fill="white" stroke="black" points="175.5,-821 126.5,-783 175.5,-745 224.5,-783 175.5,-821"/>
<text text-anchor="middle" x="175.5" y="-786.8" font-family="Times,serif" font-size="14.00">JSON</text>
<text text-anchor="middle" x="175.5" y="-771.8" font-family="Times,serif" font-size="14.00">exists</text>
</g>
<!-- db_exists&#45;&gt;json_exists -->
<g id="edge1" class="edge">
<title>db_exists&#45;&gt;json_exists</title>
<path fill="none" stroke="black" d="M167.59,-873.85C168.82,-859.88 170.25,-843.65 171.55,-828.86"/>
<polygon fill="black" stroke="black" points="175.04,-829.16 172.43,-818.89 168.07,-828.54 175.04,-829.16"/>
<text text-anchor="middle" x="181" y="-842.8" font-family="Times,serif" font-size="14.00">Yes</text>
</g>
<!-- end2 -->
<g id="node13" class="node">
<title>end2</title>
<ellipse fill="black" stroke="black" cx="451.5" cy="-11" rx="7" ry="7"/>
<ellipse fill="none" stroke="black" cx="451.5" cy="-11" rx="11" ry="11"/>
</g>
<!-- db_exists&#45;&gt;end2 -->
<g id="edge16" class="edge">
<title>db_exists&#45;&gt;end2</title>
<path fill="none" stroke="black" d="M215.72,-902.78C318.15,-888.91 538.5,-851.26 538.5,-784 538.5,-784 538.5,-784 538.5,-110 538.5,-69.05 495.49,-37.23 469.95,-21.95"/>
<polygon fill="black" stroke="black" points="471.56,-18.85 461.14,-16.92 468.09,-24.92 471.56,-18.85"/>
<text text-anchor="middle" x="547" y="-398.3" font-family="Times,serif" font-size="14.00">No</text>
</g>
<!-- json_valid -->
<g id="node3" class="node">
<title>json_valid</title>
<polygon fill="white" stroke="black" points="175.5,-694 126.5,-656 175.5,-618 224.5,-656 175.5,-694"/>
<text text-anchor="middle" x="175.5" y="-659.8" font-family="Times,serif" font-size="14.00">JSON</text>
<text text-anchor="middle" x="175.5" y="-644.8" font-family="Times,serif" font-size="14.00">valid</text>
</g>
<!-- json_exists&#45;&gt;json_valid -->
<g id="edge2" class="edge">
<title>json_exists&#45;&gt;json_valid</title>
<path fill="none" stroke="black" d="M175.5,-744.83C175.5,-732.1 175.5,-717.68 175.5,-704.26"/>
<polygon fill="black" stroke="black" points="179,-704.24 175.5,-694.24 172,-704.24 179,-704.24"/>
<text text-anchor="middle" x="186" y="-715.8" font-family="Times,serif" font-size="14.00">Yes</text>
</g>
<!-- json_exists&#45;&gt;end2 -->
<g id="edge17" class="edge">
<title>json_exists&#45;&gt;end2</title>
<path fill="none" stroke="black" d="M214.69,-775.1C299.5,-759.07 492.5,-716.08 492.5,-657 492.5,-657 492.5,-657 492.5,-464.5 492.5,-369.37 496.5,-345.63 496.5,-250.5 496.5,-250.5 496.5,-250.5 496.5,-110 496.5,-78.93 477.59,-46.96 464.28,-28.31"/>
<polygon fill="black" stroke="black" points="466.92,-25.99 458.14,-20.07 461.31,-30.18 466.92,-25.99"/>
<text text-anchor="middle" x="503" y="-334.8" font-family="Times,serif" font-size="14.00">No</text>
</g>
<!-- has_update -->
<g id="node4" class="node">
<title>has_update</title>
<polygon fill="white" stroke="black" points="167.5,-567 107.5,-529 167.5,-491 227.5,-529 167.5,-567"/>
<text text-anchor="middle" x="167.5" y="-532.8" font-family="Times,serif" font-size="14.00">has past</text>
<text text-anchor="middle" x="167.5" y="-517.8" font-family="Times,serif" font-size="14.00">updates</text>
</g>
<!-- json_valid&#45;&gt;has_update -->
<g id="edge3" class="edge">
<title>json_valid&#45;&gt;has_update</title>
<path fill="none" stroke="black" d="M173.23,-619.51C172.36,-605.92 171.35,-590.22 170.43,-575.8"/>
<polygon fill="black" stroke="black" points="173.91,-575.33 169.78,-565.57 166.92,-575.78 173.91,-575.33"/>
<text text-anchor="middle" x="182" y="-588.8" font-family="Times,serif" font-size="14.00">Yes</text>
</g>
<!-- json_valid&#45;&gt;end2 -->
<g id="edge18" class="edge">
<title>json_valid&#45;&gt;end2</title>
<path fill="none" stroke="black" d="M222.32,-654.22C301.06,-650.17 451.5,-629.42 451.5,-530 451.5,-530 451.5,-530 451.5,-110 451.5,-83.12 451.5,-52.09 451.5,-32.27"/>
<polygon fill="black" stroke="black" points="455,-32.02 451.5,-22.02 448,-32.02 455,-32.02"/>
<text text-anchor="middle" x="460" y="-290.3" font-family="Times,serif" font-size="14.00">No</text>
</g>
<!-- version_bump -->
<g id="node5" class="node">
<title>version_bump</title>
<polygon fill="white" stroke="black" points="171.5,-440 115.5,-402 171.5,-364 227.5,-402 171.5,-440"/>
<text text-anchor="middle" x="171.5" y="-405.8" font-family="Times,serif" font-size="14.00">version</text>
<text text-anchor="middle" x="171.5" y="-390.8" font-family="Times,serif" font-size="14.00">bump</text>
</g>
<!-- has_update&#45;&gt;version_bump -->
<g id="edge4" class="edge">
<title>has_update&#45;&gt;version_bump</title>
<path fill="none" stroke="black" d="M168.67,-491.51C169.09,-478.42 169.56,-463.47 170.01,-449.63"/>
<polygon fill="black" stroke="black" points="173.52,-449.43 170.34,-439.32 166.52,-449.2 173.52,-449.43"/>
<text text-anchor="middle" x="180" y="-461.8" font-family="Times,serif" font-size="14.00">Yes</text>
</g>
<!-- has_update&#45;&gt;end2 -->
<g id="edge19" class="edge">
<title>has_update&#45;&gt;end2</title>
<path fill="none" stroke="black" d="M188.16,-503.71C202.44,-486.45 221.5,-462.43 236.5,-440 297.8,-348.36 309.57,-322.8 358.5,-224 398,-144.25 400.03,-120.72 437.5,-40 438.96,-36.85 440.57,-33.52 442.16,-30.3"/>
<polygon fill="black" stroke="black" points="445.34,-31.77 446.7,-21.27 439.08,-28.63 445.34,-31.77"/>
<text text-anchor="middle" x="357" y="-245.8" font-family="Times,serif" font-size="14.00">No</text>
</g>
<!-- last_update -->
<g id="node6" class="node">
<title>last_update</title>
<polygon fill="white" stroke="black" points="219.5,-313 125.5,-313 125.5,-275 219.5,-275 219.5,-313"/>
<text text-anchor="middle" x="172.5" y="-297.8" font-family="Times,serif" font-size="14.00">determine last</text>
<text text-anchor="middle" x="172.5" y="-282.8" font-family="Times,serif" font-size="14.00">update date</text>
</g>
<!-- version_bump&#45;&gt;last_update -->
<g id="edge5" class="edge">
<title>version_bump&#45;&gt;last_update</title>
<path fill="none" stroke="black" d="M171.85,-364.22C171.97,-350.9 172.11,-336.07 172.23,-323.56"/>
<polygon fill="black" stroke="black" points="175.73,-323.3 172.33,-313.27 168.73,-323.23 175.73,-323.3"/>
<text text-anchor="middle" x="180" y="-334.8" font-family="Times,serif" font-size="14.00">No</text>
</g>
<!-- version_bump&#45;&gt;end2 -->
<g id="edge20" class="edge">
<title>version_bump&#45;&gt;end2</title>
<path fill="none" stroke="black" d="M191.82,-377.73C228.48,-334.86 306.52,-239.51 356.5,-149 381.67,-103.41 364.91,-78.94 399.5,-40 408.07,-30.36 420.77,-23.43 431.48,-18.88"/>
<polygon fill="black" stroke="black" points="432.86,-22.1 440.93,-15.23 430.34,-15.56 432.86,-22.1"/>
<text text-anchor="middle" x="344" y="-201.3" font-family="Times,serif" font-size="14.00">Yes</text>
</g>
<!-- download_patch -->
<g id="node7" class="node">
<title>download_patch</title>
<polygon fill="white" stroke="black" points="207.5,-224 137.5,-224 137.5,-186 207.5,-186 207.5,-224"/>
<text text-anchor="middle" x="172.5" y="-208.8" font-family="Times,serif" font-size="14.00">download</text>
<text text-anchor="middle" x="172.5" y="-193.8" font-family="Times,serif" font-size="14.00">patch</text>
</g>
<!-- last_update&#45;&gt;download_patch -->
<g id="edge6" class="edge">
<title>last_update&#45;&gt;download_patch</title>
<path fill="none" stroke="black" d="M172.5,-274.97C172.5,-263.19 172.5,-247.56 172.5,-234.16"/>
<polygon fill="black" stroke="black" points="176,-234 172.5,-224 169,-234 176,-234"/>
</g>
<!-- days_behind -->
<g id="node8" class="node">
<title>days_behind</title>
<polygon fill="white" stroke="black" points="172.5,-149 119.5,-111 172.5,-73 225.5,-111 172.5,-149"/>
<text text-anchor="middle" x="172.5" y="-114.8" font-family="Times,serif" font-size="14.00">days</text>
<text text-anchor="middle" x="172.5" y="-99.8" font-family="Times,serif" font-size="14.00">behind</text>
</g>
<!-- download_patch&#45;&gt;days_behind -->
<g id="edge7" class="edge">
<title>download_patch&#45;&gt;days_behind</title>
<path fill="none" stroke="black" d="M172.5,-185.82C172.5,-178.13 172.5,-168.78 172.5,-159.35"/>
<polygon fill="black" stroke="black" points="176,-159.16 172.5,-149.16 169,-159.16 176,-159.16"/>
</g>
<!-- end0 -->
<g id="node11" class="node">
<title>end0</title>
<ellipse fill="black" stroke="black" cx="83.5" cy="-11" rx="7" ry="7"/>
<ellipse fill="none" stroke="black" cx="83.5" cy="-11" rx="11" ry="11"/>
</g>
<!-- days_behind&#45;&gt;end0 -->
<g id="edge13" class="edge">
<title>days_behind&#45;&gt;end0</title>
<path fill="none" stroke="black" d="M151.86,-87.27C135.07,-68.78 111.84,-43.21 97.25,-27.14"/>
<polygon fill="black" stroke="black" points="99.8,-24.74 90.48,-19.69 94.62,-29.45 99.8,-24.74"/>
<text text-anchor="middle" x="123" y="-43.8" font-family="Times,serif" font-size="14.00">0</text>
</g>
<!-- end1 -->
<g id="node12" class="node">
<title>end1</title>
<ellipse fill="black" stroke="black" cx="265.5" cy="-11" rx="7" ry="7"/>
<ellipse fill="none" stroke="black" cx="265.5" cy="-11" rx="11" ry="11"/>
</g>
<!-- days_behind&#45;&gt;end1 -->
<g id="edge14" class="edge">
<title>days_behind&#45;&gt;end1</title>
<path fill="none" stroke="black" d="M187.09,-83.43C195.62,-69.45 207.3,-52.63 220.5,-40 228.23,-32.61 238.22,-26.15 246.82,-21.31"/>
<polygon fill="black" stroke="black" points="248.56,-24.35 255.75,-16.57 245.28,-18.17 248.56,-24.35"/>
<text text-anchor="middle" x="224" y="-43.8" font-family="Times,serif" font-size="14.00">1</text>
</g>
<!-- days_behind&#45;&gt;end2 -->
<g id="edge15" class="edge">
<title>days_behind&#45;&gt;end2</title>
<path fill="none" stroke="black" d="M195.87,-89.7C206.94,-80.99 220.74,-71.37 234.5,-65 302.23,-33.64 390.76,-19.48 430.55,-14.38"/>
<polygon fill="black" stroke="black" points="431.12,-17.83 440.62,-13.15 430.27,-10.89 431.12,-17.83"/>
<text text-anchor="middle" x="305" y="-43.8" font-family="Times,serif" font-size="14.00">≥2</text>
</g>
<!-- start -->
<g id="node9" class="node">
<title>start</title>
<ellipse fill="black" stroke="black" cx="164.5" cy="-992.2" rx="7.2" ry="7.2"/>
</g>
<!-- start&#45;&gt;db_exists -->
<g id="edge9" class="edge">
<title>start&#45;&gt;db_exists</title>
<path fill="none" stroke="black" d="M164.5,-984.91C164.5,-978.81 164.5,-968.95 164.5,-958.39"/>
<polygon fill="black" stroke="black" points="168,-958.16 164.5,-948.16 161,-958.16 168,-958.16"/>
</g>
<!-- start_note -->
<g id="node10" class="node">
<title>start_note</title>
<polygon fill="none" stroke="black" points="206,-1094.4 117,-1094.4 117,-1036.4 212,-1036.4 212,-1088.4 206,-1094.4"/>
<polyline fill="none" stroke="black" points="206,-1094.4 206,-1088.4 "/>
<polyline fill="none" stroke="black" points="212,-1088.4 206,-1088.4 "/>
<text text-anchor="middle" x="164.5" y="-1069.2" font-family="Times,serif" font-size="14.00">Determine</text>
<text text-anchor="middle" x="164.5" y="-1054.2" font-family="Times,serif" font-size="14.00">update type.</text>
</g>
<!-- start_note&#45;&gt;start -->
<g id="edge8" class="edge">
<title>start_note&#45;&gt;start</title>
<path fill="none" stroke="black" stroke-dasharray="5,2" d="M164.5,-1036.26C164.5,-1022.73 164.5,-1007.7 164.5,-999.46"/>
</g>
<!-- end_note0 -->
<g id="node14" class="node">
<title>end_note0</title>
<polygon fill="none" stroke="black" points="79,-140 0,-140 0,-82 85,-82 85,-134 79,-140"/>
<polyline fill="none" stroke="black" points="79,-140 79,-134 "/>
<polyline fill="none" stroke="black" points="85,-134 79,-134 "/>
<text text-anchor="middle" x="42.5" y="-114.8" font-family="Times,serif" font-size="14.00">No update</text>
<text text-anchor="middle" x="42.5" y="-99.8" font-family="Times,serif" font-size="14.00">available.</text>
</g>
<!-- end_note0&#45;&gt;end0 -->
<g id="edge10" class="edge">
<title>end_note0&#45;&gt;end0</title>
<path fill="none" stroke="black" stroke-dasharray="5,2" d="M54.25,-81.92C62.77,-61.56 73.77,-35.26 79.55,-21.44"/>
</g>
<!-- end_note1 -->
<g id="node15" class="node">
<title>end_note1</title>
<polygon fill="none" stroke="black" points="341.5,-140 243.5,-140 243.5,-82 347.5,-82 347.5,-134 341.5,-140"/>
<polyline fill="none" stroke="black" points="341.5,-140 341.5,-134 "/>
<polyline fill="none" stroke="black" points="347.5,-134 341.5,-134 "/>
<text text-anchor="middle" x="295.5" y="-114.8" font-family="Times,serif" font-size="14.00">Partial update</text>
<text text-anchor="middle" x="295.5" y="-99.8" font-family="Times,serif" font-size="14.00">available.</text>
</g>
<!-- end_note1&#45;&gt;end1 -->
<g id="edge11" class="edge">
<title>end_note1&#45;&gt;end1</title>
<path fill="none" stroke="black" stroke-dasharray="5,2" d="M286.9,-81.92C280.74,-61.78 272.8,-35.85 268.53,-21.91"/>
</g>
<!-- end_note2 -->
<g id="node16" class="node">
<title>end_note2</title>
<polygon fill="none" stroke="black" points="682.5,-140 566.5,-140 566.5,-82 688.5,-82 688.5,-134 682.5,-140"/>
<polyline fill="none" stroke="black" points="682.5,-140 682.5,-134 "/>
<polyline fill="none" stroke="black" points="688.5,-134 682.5,-134 "/>
<text text-anchor="middle" x="627.5" y="-114.8" font-family="Times,serif" font-size="14.00">Complete update</text>
<text text-anchor="middle" x="627.5" y="-99.8" font-family="Times,serif" font-size="14.00">required.</text>
</g>
<!-- end_note2&#45;&gt;end2 -->
<g id="edge12" class="edge">
<title>end_note2&#45;&gt;end2</title>
<path fill="none" stroke="black" stroke-dasharray="5,2" d="M603.61,-81.97C589.97,-67.56 571.77,-50.79 552.5,-40 522.5,-23.19 481.74,-15.94 462.47,-13.3"/>
</g>
</g>
</svg>
